<?xml version="1.0" standalone="no"?>
<!DOCTYPE svg PUBLIC "-//W3C//DTD SVG 20010904//EN"
 "http://www.w3.org/TR/2001/REC-SVG-20010904/DTD/svg10.dtd">
<svg version="1.0" xmlns="http://www.w3.org/2000/svg"
 width="620.000000pt" height="633.000000pt" viewBox="0 0 620.000000 633.000000"
 preserveAspectRatio="xMidYMid meet">
<metadata>
Created by potrace 1.16, written by Peter Selinger 2001-2019
</metadata>
<g transform="translate(0.000000,633.000000) scale(0.100000,-0.100000)"
fill="#000000" stroke="none">
<path d="M2089 6254 c-149 -104 -379 -195 -597 -236 -98 -19 -151 -22 -322
-22 -232 1 -331 16 -512 78 -57 19 -103 34 -104 33 -1 -1 -57 -78 -126 -172
-69 -93 -131 -180 -138 -191 -12 -20 -8 -31 52 -120 171 -258 264 -473 315
-729 27 -136 24 -405 -6 -545 -45 -214 -130 -424 -253 -625 -73 -119 -228
-328 -327 -440 -39 -44 -71 -82 -71 -85 0 -3 67 -73 150 -155 l150 -150 0
-100 c1 -650 166 -1182 485 -1565 361 -434 950 -707 1713 -794 102 -12 128
-18 155 -39 18 -13 124 -99 236 -191 127 -102 209 -162 215 -157 6 4 113 91
237 193 l226 184 128 13 c820 79 1499 457 1856 1031 150 241 258 550 304 863
19 134 38 457 29 515 l-6 43 152 154 152 153 -104 123 c-296 354 -466 673
-538 1014 -27 128 -37 367 -21 488 37 276 165 588 341 829 l51 70 -121 168
c-66 93 -129 178 -138 191 l-18 22 -80 -26 c-347 -115 -724 -115 -1073 -1
-124 41 -278 113 -375 177 l-69 45 -91 -60 c-112 -73 -324 -178 -430 -212
-284 -93 -552 -94 -836 -4 -128 40 -292 121 -421 206 l-106 70 -64 -44z m133
-170 c172 -114 381 -203 582 -246 136 -29 414 -32 556 -5 196 37 420 128 597
243 l82 53 53 -36 c129 -88 348 -172 558 -215 101 -20 144 -23 355 -23 251 0
351 12 520 63 l60 18 68 -90 c38 -50 73 -99 78 -108 7 -13 -5 -39 -51 -110
-127 -194 -218 -417 -267 -647 -25 -115 -27 -145 -27 -346 0 -201 3 -231 28
-350 73 -349 232 -675 472 -969 43 -54 83 -104 89 -112 8 -11 -19 -43 -115
-139 l-125 -125 4 -218 c1 -119 -2 -264 -9 -322 -33 -307 -124 -597 -259 -829
-98 -167 -290 -385 -446 -507 -367 -286 -892 -474 -1399 -501 l-120 -6 -95
-81 c-53 -44 -145 -122 -205 -173 -95 -82 -111 -92 -125 -80 -189 161 -396
327 -409 327 -31 0 -287 29 -358 40 -383 60 -762 202 -1044 390 -172 115 -374
316 -482 480 -163 247 -254 476 -307 776 -29 163 -45 389 -38 553 l6 145 -87
90 c-48 50 -104 110 -126 133 l-38 41 73 89 c445 536 629 1154 508 1708 -45
207 -148 450 -268 634 l-62 93 73 95 c40 52 78 100 83 108 9 11 23 9 80 -10
429 -143 1052 -62 1415 184 25 17 47 31 49 31 2 0 35 -21 73 -46z"/>
<path d="M3890 5787 c-365 -181 -726 -242 -1078 -181 -195 33 -346 84 -549
186 l-122 61 -108 -50 c-175 -83 -366 -138 -568 -163 -121 -16 -425 -13 -580
5 -76 9 -139 14 -142 12 -2 -3 12 -32 32 -66 52 -88 100 -197 145 -327 78
-225 106 -421 97 -679 -8 -249 -51 -460 -142 -706 -25 -68 -45 -127 -45 -131
0 -4 1017 -8 2260 -8 1243 0 2260 2 2260 5 0 3 -12 34 -26 68 -245 575 -230
1178 42 1716 l63 123 -32 -6 c-74 -14 -564 -19 -677 -7 -228 24 -401 74 -578
167 -57 30 -104 54 -105 53 -1 0 -67 -33 -147 -72z m390 -1049 l0 -958 -115 0
-115 0 0 1014 0 1013 115 -56 115 -56 0 -957z m-480 2 l0 -960 -115 0 -115 0
0 918 0 917 113 41 c61 23 113 42 115 43 1 0 2 -431 2 -959z m-1335 919 c156
-60 299 -90 548 -115 l57 -5 0 -245 0 -244 -342 2 -343 3 -3 318 c-1 174 -1
317 1 317 1 0 38 -14 82 -31z m-765 -314 l0 -295 -338 0 -339 0 -23 88 c-31
120 -83 259 -142 376 l-49 99 58 -7 c32 -3 153 -9 268 -12 206 -6 409 8 501
35 69 21 64 43 64 -284z m3058 -658 l2 -907 -115 0 -115 0 0 923 0 922 113
-15 112 -16 3 -907z m561 836 c-85 -169 -157 -395 -190 -598 -20 -124 -18
-456 5 -590 24 -150 67 -310 115 -439 23 -60 41 -110 41 -112 0 -2 -63 -4
-140 -4 l-140 0 0 905 0 904 108 4 c59 1 137 4 173 5 l67 2 -39 -77z m-1999
-853 l0 -890 -105 0 -105 0 0 879 0 880 43 5 c38 5 80 10 145 14 l22 2 0 -890z
m-1620 -590 l0 -300 -411 0 c-388 0 -411 1 -404 18 57 135 123 366 146 510
l12 72 328 0 329 0 0 -300z m1370 0 l0 -300 -345 0 -345 0 0 300 0 300 345 0
345 0 0 -300z"/>
<path d="M2925 3637 c-90 -44 -137 -117 -154 -238 -30 -218 87 -381 274 -382
98 -1 156 31 210 116 21 33 16 40 -53 78 l-42 23 -16 -22 c-33 -48 -101 -64
-152 -38 -67 35 -99 110 -88 204 9 75 29 109 81 134 39 19 49 20 83 10 22 -7
51 -23 65 -37 l25 -26 56 28 c31 15 56 31 56 37 0 22 -52 74 -101 100 -76 42
-174 47 -244 13z"/>
<path d="M2070 3340 l0 -310 65 0 65 0 0 130 0 130 90 0 90 0 0 65 0 65 -90 0
-90 0 0 50 0 50 160 0 160 0 0 65 0 65 -225 0 -225 0 0 -310z"/>
<path d="M3600 3339 l0 -310 189 3 189 3 39 31 c97 78 110 194 31 281 -20 21
-20 21 1 50 24 33 36 90 27 127 -9 36 -65 96 -103 112 -23 10 -82 14 -203 14
l-170 0 0 -311z m318 175 c24 -17 29 -53 10 -72 -8 -8 -46 -12 -105 -12 l-93
0 0 50 0 50 83 0 c59 0 89 -5 105 -16z m5 -225 c29 -16 37 -28 37 -61 0 -54
-29 -68 -135 -68 l-95 0 0 70 0 70 86 0 c47 0 95 -5 107 -11z"/>
<path d="M685 2930 c-4 -6 -12 -82 -18 -170 -30 -429 66 -829 271 -1138 308
-463 883 -756 1631 -832 134 -13 883 -13 1031 1 918 84 1535 476 1801 1146 42
105 85 277 105 419 17 125 23 434 9 532 l-7 52 -2408 0 c-1644 0 -2411 -3
-2415 -10z m2328 -452 c-26 -50 -22 -115 12 -176 26 -47 27 -54 13 -69 -34
-39 -68 -123 -68 -168 0 -55 19 -97 68 -147 33 -35 34 -39 22 -67 -6 -17 -34
-51 -61 -76 -42 -39 -54 -45 -92 -45 -62 0 -132 48 -174 118 -63 106 -66 250
-12 468 20 78 25 88 59 109 50 32 103 54 170 70 82 20 83 20 63 -17z m241 16
c201 -51 375 -209 441 -401 25 -73 44 -185 28 -168 -5 6 -35 43 -68 83 -146
183 -351 294 -512 279 l-63 -6 -21 42 c-28 54 -28 106 0 151 22 34 25 36 78
36 30 0 83 -7 117 -16z m-585 -224 c-48 -223 -29 -389 58 -482 l25 -27 -21
-27 c-12 -15 -35 -37 -53 -50 -32 -24 -129 -50 -153 -40 -22 8 -46 102 -52
202 -10 164 48 335 158 457 28 32 53 57 54 55 2 -2 -5 -41 -16 -88z m647 -50
c119 -41 276 -175 374 -320 39 -57 42 -66 36 -108 -8 -59 -37 -152 -48 -152
-4 0 -8 4 -8 9 0 5 -18 27 -41 49 -49 50 -112 75 -173 71 -45 -4 -45 -4 -62
40 -19 50 -65 106 -105 127 -37 19 -99 18 -150 -2 l-41 -17 -41 42 c-40 40
-42 44 -42 105 0 56 4 69 37 119 22 33 46 58 60 60 42 10 145 -2 204 -23z
m-29 -329 c20 -13 42 -42 63 -85 l32 -65 -28 -51 c-33 -60 -112 -136 -187
-179 -70 -40 -211 -86 -322 -105 -131 -23 -135 -23 -189 32 -50 49 -123 149
-114 157 2 3 28 9 58 15 62 12 107 38 149 86 l31 34 40 -20 c47 -24 110 -26
156 -4 39 19 97 81 125 136 10 21 31 44 47 52 38 21 101 20 139 -3z m260 -182
c44 -21 97 -77 106 -110 12 -46 -121 -196 -234 -262 -102 -60 -185 -82 -314
-82 -120 0 -175 11 -273 57 -64 30 -73 48 -22 48 15 0 79 13 141 29 200 50
342 136 418 254 23 34 46 68 51 75 16 19 79 14 127 -9z"/>
</g>
</svg>
